<?xml version="1.0" encoding="UTF-8" standalone="no"?><!DOCTYPE svg PUBLIC "-//W3C//DTD SVG 1.1//EN" "http://www.w3.org/Graphics/SVG/1.1/DTD/svg11.dtd"><svg width="100%" height="100%" viewBox="0 0 8547 8547" version="1.1" xmlns="http://www.w3.org/2000/svg" xmlns:xlink="http://www.w3.org/1999/xlink" xml:space="preserve" xmlns:serif="http://www.serif.com/" style="fill-rule:evenodd;clip-rule:evenodd;stroke-linecap:round;stroke-linejoin:round;stroke-miterlimit:1.5;"><g><path d="M8546.67,2136.67c-0,-1179.26 -957.409,-2136.67 -2136.67,-2136.67l-4273.34,0c-1179.26,0 -2136.67,957.408 -2136.67,2136.67l-0,4273.34c-0,1179.26 957.408,2136.67 2136.67,2136.67l4273.34,-0c1179.26,-0 2136.67,-957.409 2136.67,-2136.67l-0,-4273.34Z" style="fill:#656565;"/><g><path d="M4273.33,1720.66c1599.17,0 2897.5,1298.32 2897.5,2897.5c0,1599.17 -1298.32,2897.5 -2897.5,2897.5c-1599.17,-0 -2897.49,-1298.33 -2897.49,-2897.5c-0,-1599.17 1298.32,-2897.5 2897.49,-2897.5Zm0,521.549c1311.32,0 2375.95,1064.63 2375.95,2375.95c-0,1311.32 -1064.63,2375.95 -2375.95,2375.95c-1311.32,0 -2375.95,-1064.63 -2375.95,-2375.95c-0,-1311.32 1064.63,-2375.95 2375.95,-2375.95Z" style="fill:#00a4ff;"/><g><path d="M2882.82,4793.93l-295.139,0l-0,450.304c-0,64.381 -15.191,113.209 -45.573,146.484c-30.382,33.276 -68.721,49.913 -115.017,49.914c-48.467,-0.001 -87.529,-16.457 -117.188,-49.371c-29.658,-32.914 -44.488,-81.2 -44.488,-144.857l0,-1226.13c0,-70.892 16.276,-121.528 48.828,-151.91c32.553,-30.382 84.274,-45.573 155.165,-45.573l413.412,-0c122.251,-0 216.29,9.404 282.118,28.212c65.104,18.084 121.347,48.105 168.728,90.061c47.382,41.956 83.37,93.316 107.965,154.079c24.595,60.764 36.892,129.124 36.892,205.079c-0,162.037 -49.913,284.83 -149.74,368.381c-99.826,83.55 -248.481,125.325 -445.963,125.325Zm-78.125,-729.167l-217.014,0l-0,486.112l217.014,-0c75.955,-0 139.431,-7.958 190.43,-23.872c50.998,-15.914 89.879,-41.956 116.645,-78.125c26.765,-36.169 40.147,-83.55 40.147,-142.144c0,-70.168 -20.616,-127.315 -61.849,-171.441c-46.296,-47.02 -141.421,-70.53 -285.373,-70.53Z" style="fill:#00a4ff;fill-rule:nonzero;"/><path d="M4570.1,5233.39l-75.955,-199.653l-646.701,0l-75.955,203.994c-29.659,79.571 -54.977,133.282 -75.955,161.132c-20.978,27.85 -55.339,41.775 -103.082,41.776c-40.509,-0.001 -76.316,-14.83 -107.422,-44.488c-31.105,-29.659 -46.658,-63.296 -46.658,-100.912c0,-21.701 3.617,-44.126 10.851,-67.274c7.234,-23.148 19.17,-55.339 35.807,-96.571l406.901,-1032.99c11.575,-29.659 25.5,-65.285 41.776,-106.88c16.276,-41.594 33.637,-76.135 52.083,-103.624c18.446,-27.488 42.679,-49.732 72.7,-66.732c30.02,-16.999 67.093,-25.499 111.219,-25.499c44.85,0 82.285,8.5 112.305,25.499c30.02,17 54.253,38.882 72.7,65.647c18.446,26.765 33.998,55.519 46.658,86.263c12.659,30.744 28.754,71.795 48.285,123.155l415.582,1026.48c32.552,78.125 48.828,134.91 48.828,170.356c-0,36.892 -15.372,70.71 -46.116,101.454c-30.743,30.744 -67.816,46.115 -111.219,46.116c-25.318,-0.001 -47.02,-4.522 -65.104,-13.564c-18.085,-9.042 -33.276,-21.34 -45.573,-36.892c-12.298,-15.553 -25.499,-39.424 -39.605,-71.615c-14.106,-32.19 -26.223,-60.583 -36.35,-85.178Zm-638.021,-441.623l475.26,-0l-239.8,-656.467l-235.46,656.467Z" style="fill:#00a4ff;fill-rule:nonzero;"/><path d="M5466.37,3990.98l0,1157.77l653.212,-0c52.083,-0 92.05,12.659 119.9,37.977c27.85,25.319 41.775,57.147 41.775,95.486c0,39.063 -13.744,70.711 -41.232,94.944c-27.489,24.233 -67.636,36.35 -120.443,36.35l-777.995,-0c-70.168,-0 -120.623,-15.553 -151.367,-46.658c-30.744,-31.106 -46.115,-81.38 -46.115,-150.825l-0,-1225.04c-0,-65.104 14.648,-113.933 43.945,-146.485c29.297,-32.552 67.817,-48.828 115.56,-48.828c48.466,0 87.71,16.095 117.73,48.286c30.02,32.19 45.03,81.199 45.03,147.027Z" style="fill:#00a4ff;fill-rule:nonzero;"/></g><path d="M2551.14,4432.57c53.674,46.731 84.487,114.413 84.487,185.58c-0,71.167 -30.813,138.848 -84.487,185.58c-284.276,247.507 -793.437,690.812 -1153.51,1004.31c-73.263,63.787 -177.037,78.896 -265.447,38.646c-88.411,-40.249 -145.159,-128.436 -145.159,-225.577c0,-565.22 0,-1444.13 0,-2008.42c0,-96.696 56.488,-184.477 144.493,-224.542c88.004,-40.065 191.301,-25.026 264.229,38.469c360.18,313.594 870.624,758.014 1155.4,1005.95Z" style="fill:#00a4ff;stroke:#656565;stroke-width:164.09px;"/><path d="M5209.26,1773.92c93.716,37.195 200.626,13.862 270.321,-58.998c69.696,-72.86 88.263,-180.7 46.945,-272.672c-215.884,-476.925 -696.035,-809.232 -1253.19,-809.232c-558.492,0 -1039.61,333.907 -1254.44,812.806c-40.747,91.451 -22.035,198.472 47.326,270.671c69.361,72.198 175.546,95.185 268.556,58.135c273.675,-108.36 597.851,-179.725 938.563,-179.725c339.665,-0 662.895,70.927 935.923,179.015Z" style="fill:#00a4ff;stroke:#656565;stroke-width:164.09px;"/><path d="M5021.87,1726.05c-0,-413.127 -335.407,-678.604 -748.534,-678.604c-413.126,-0 -748.533,265.477 -748.533,678.604c174.658,-123.938 449.938,-154.631 748.533,-154.631c298.596,-0 573.876,30.693 748.534,154.631Z" style="fill:#656565;"/></g></g></svg>